<svg xmlns="http://www.w3.org/2000/svg" xmlns:xlink="http://www.w3.org/1999/xlink" viewBox="0 0 112.63 17"><path d="M 11.006 3.124 C 10.907 3.279 10.802 3.394 10.69 3.464 C 10.578 3.536 10.438 3.572 10.273 3.572 C 10.099 3.572 9.91 3.513 9.708 3.397 C 9.504 3.281 9.262 3.153 8.979 3.011 C 8.697 2.87 8.368 2.741 7.991 2.625 C 7.614 2.51 7.168 2.451 6.654 2.451 C 6.19 2.451 5.783 2.502 5.435 2.603 C 5.087 2.704 4.795 2.842 4.558 3.022 C 4.322 3.201 4.146 3.416 4.03 3.666 C 3.914 3.916 3.855 4.19 3.855 4.489 C 3.855 4.869 3.975 5.186 4.211 5.44 C 4.446 5.695 4.759 5.91 5.149 6.089 C 5.539 6.269 5.983 6.429 6.48 6.571 C 6.978 6.712 7.487 6.864 8.01 7.024 C 8.532 7.185 9.042 7.371 9.54 7.584 C 10.037 7.797 10.48 8.065 10.87 8.39 C 11.26 8.714 11.573 9.111 11.809 9.582 C 12.046 10.052 12.164 10.623 12.164 11.295 C 12.164 12.025 12.024 12.71 11.747 13.348 C 11.469 13.986 11.063 14.542 10.528 15.016 C 9.994 15.49 9.341 15.863 8.569 16.135 C 7.798 16.408 6.915 16.544 5.921 16.544 C 5.348 16.544 4.785 16.493 4.228 16.392 C 3.674 16.292 3.14 16.149 2.631 15.962 C 2.121 15.775 1.642 15.552 1.195 15.29 C 0.746 15.029 0.349 14.737 0 14.417 L 0.983 12.974 C 1.067 12.868 1.174 12.782 1.306 12.71 C 1.439 12.639 1.581 12.603 1.729 12.603 C 1.936 12.603 2.16 12.681 2.401 12.834 C 2.64 12.987 2.927 13.156 3.259 13.343 C 3.59 13.53 3.979 13.699 4.422 13.851 C 4.865 14.004 5.398 14.081 6.02 14.081 C 6.973 14.081 7.711 13.878 8.233 13.471 C 8.756 13.064 9.017 12.481 9.017 11.719 C 9.017 11.295 8.899 10.948 8.663 10.679 C 8.426 10.41 8.112 10.184 7.724 10.002 C 7.334 9.819 6.89 9.663 6.393 9.537 C 5.895 9.41 5.39 9.272 4.875 9.123 C 4.361 8.973 3.855 8.794 3.358 8.585 C 2.86 8.377 2.417 8.104 2.028 7.768 C 1.638 7.433 1.325 7.014 1.088 6.509 C 0.853 6.007 0.734 5.385 0.734 4.646 C 0.734 4.056 0.866 3.481 1.126 2.921 C 1.387 2.362 1.766 1.865 2.264 1.434 C 2.761 1.001 3.376 0.653 4.105 0.393 C 4.835 0.13 5.672 0 6.617 0 C 7.678 0 8.657 0.149 9.552 0.448 C 10.447 0.747 11.21 1.165 11.84 1.702 Z M 18.381 2.575 L 18.381 7.064 L 24.675 7.064 L 24.675 9.38 L 18.381 9.38 L 18.381 13.958 L 26.366 13.958 L 26.366 16.365 L 15.023 16.365 L 15.023 0.179 L 26.366 0.179 L 26.366 2.575 Z M 43.716 8.25 L 43.716 14.797 C 42.803 15.402 41.831 15.845 40.798 16.125 C 39.767 16.404 38.662 16.543 37.486 16.543 C 36.017 16.543 34.687 16.339 33.499 15.928 C 32.309 15.518 31.294 14.948 30.452 14.216 C 29.61 13.484 28.962 12.611 28.505 11.597 C 28.049 10.582 27.821 9.473 27.821 8.273 C 27.821 7.057 28.041 5.941 28.481 4.926 C 28.92 3.91 29.544 3.037 30.352 2.307 C 31.161 1.575 32.141 1.008 33.294 0.605 C 34.446 0.202 35.74 0 37.173 0 C 37.903 0 38.585 0.053 39.22 0.157 C 39.853 0.262 40.443 0.405 40.986 0.587 C 41.529 0.771 42.024 0.994 42.472 1.254 C 42.919 1.515 43.33 1.802 43.704 2.115 L 42.746 3.481 C 42.597 3.699 42.402 3.83 42.16 3.879 C 41.921 3.927 41.659 3.873 41.378 3.717 L 40.556 3.291 C 40.283 3.15 39.979 3.027 39.643 2.921 C 39.307 2.817 38.929 2.731 38.51 2.664 C 38.092 2.597 37.609 2.564 37.062 2.564 C 36.175 2.564 35.373 2.698 34.655 2.967 C 33.938 3.235 33.328 3.62 32.821 4.12 C 32.315 4.619 31.925 5.22 31.652 5.922 C 31.377 6.624 31.241 7.407 31.241 8.273 C 31.241 9.197 31.388 10.023 31.683 10.752 C 31.978 11.479 32.391 12.095 32.927 12.598 C 33.462 13.101 34.106 13.486 34.861 13.751 C 35.614 14.016 36.456 14.149 37.384 14.149 C 38.049 14.149 38.642 14.086 39.163 13.958 C 39.686 13.831 40.197 13.66 40.694 13.443 L 40.694 10.511 L 38.43 10.511 C 38.215 10.511 38.046 10.456 37.927 10.349 C 37.806 10.241 37.746 10.108 37.746 9.952 L 37.746 8.25 Z M 54.138 13.936 C 54.138 13.936 55.362 13.839 55.871 13.644 C 56.382 13.451 56.811 13.178 57.159 12.828 C 57.507 12.477 57.775 12.052 57.962 11.552 C 58.148 11.052 58.242 10.492 58.242 9.873 L 58.242 0.179 L 61.588 0.179 L 61.588 9.873 C 61.588 10.835 61.415 11.726 61.071 12.542 C 60.727 13.36 60.234 14.064 59.59 14.658 C 58.948 15.25 58.167 15.714 57.247 16.046 C 56.326 16.378 55.289 16.544 54.138 16.544 C 52.978 16.544 51.937 16.377 51.016 16.046 C 50.096 15.714 49.314 15.25 48.673 14.658 C 48.029 14.064 47.537 13.36 47.191 12.542 C 46.848 11.725 46.676 10.835 46.676 9.873 L 46.676 0.179 L 50.02 0.179 L 50.02 9.862 C 50.02 10.481 50.115 11.072 50.301 11.541 C 50.519 12.091 50.693 12.402 51.11 12.822 C 51.531 13.246 51.847 13.422 52.402 13.644 C 53.04 13.9 54.138 13.936 54.138 13.936 Z M 70.752 7.881 C 71.383 7.881 71.933 7.809 72.401 7.668 C 72.869 7.527 73.254 7.33 73.558 7.08 C 73.86 6.829 74.086 6.534 74.236 6.191 C 74.384 5.848 74.459 5.47 74.459 5.06 C 74.459 4.239 74.158 3.609 73.558 3.168 C 72.956 2.728 72.038 2.508 70.803 2.508 L 68.663 2.508 L 68.663 7.881 Z M 79.359 16.365 L 76.337 16.365 C 75.765 16.365 75.35 16.163 75.093 15.76 L 71.312 10.578 C 71.171 10.385 71.015 10.246 70.846 10.163 C 70.676 10.082 70.425 10.04 70.093 10.04 L 68.663 10.04 L 68.663 16.365 L 65.317 16.365 L 65.317 0.179 L 70.803 0.179 C 72.022 0.179 73.067 0.293 73.943 0.521 C 74.817 0.749 75.534 1.068 76.095 1.478 C 76.654 1.888 77.066 2.378 77.332 2.949 C 77.597 3.521 77.73 4.15 77.73 4.836 C 77.73 5.381 77.64 5.895 77.462 6.381 C 77.284 6.865 77.027 7.307 76.691 7.701 C 76.356 8.097 75.941 8.444 75.447 8.741 C 74.954 9.04 74.392 9.276 73.762 9.447 C 73.977 9.559 74.177 9.692 74.36 9.845 C 74.542 9.998 74.707 10.179 74.856 10.387 Z M 94.743 8.273 C 94.743 7.384 94.61 6.587 94.345 5.882 C 94.079 5.177 93.703 4.579 93.213 4.086 C 92.723 3.593 92.129 3.217 91.428 2.956 C 90.727 2.694 89.938 2.564 89.059 2.564 C 88.18 2.564 87.391 2.695 86.69 2.956 C 85.99 3.217 85.393 3.593 84.899 4.086 C 84.406 4.579 84.026 5.178 83.762 5.882 C 83.496 6.588 83.363 7.384 83.363 8.273 C 83.363 9.16 83.495 9.956 83.762 10.662 C 84.026 11.368 84.406 11.964 84.899 12.453 C 85.393 12.941 85.99 13.317 86.69 13.577 C 87.391 13.839 88.18 13.97 89.059 13.97 C 89.938 13.97 90.727 13.838 91.428 13.577 C 92.129 13.317 92.724 12.941 93.213 12.453 C 93.703 11.963 94.079 11.368 94.345 10.662 C 94.61 9.956 94.743 9.16 94.743 8.273 Z M 98.163 8.273 C 98.163 9.459 97.945 10.557 97.51 11.568 C 97.075 12.58 96.459 13.454 95.664 14.193 C 94.867 14.932 93.91 15.509 92.79 15.922 C 91.671 16.337 90.427 16.544 89.059 16.544 C 87.7 16.544 86.459 16.337 85.34 15.922 C 84.221 15.509 83.262 14.932 82.462 14.193 C 81.661 13.454 81.041 12.579 80.602 11.568 C 80.162 10.558 79.943 9.459 79.943 8.273 C 79.943 7.085 80.162 5.988 80.602 4.976 C 81.041 3.965 81.662 3.09 82.462 2.351 C 83.262 1.612 84.221 1.036 85.34 0.622 C 86.459 0.208 87.7 0 89.059 0 C 89.972 0 90.829 0.096 91.634 0.286 C 92.437 0.477 93.177 0.745 93.847 1.092 C 94.519 1.439 95.122 1.861 95.657 2.357 C 96.192 2.853 96.646 3.407 97.02 4.019 C 97.392 4.63 97.676 5.295 97.871 6.011 C 98.066 6.728 98.163 7.483 98.163 8.273 Z M 110.637 3.124 C 110.537 3.279 110.432 3.394 110.32 3.464 C 110.207 3.536 110.069 3.572 109.904 3.572 C 109.729 3.572 109.54 3.513 109.337 3.397 C 109.134 3.281 108.892 3.153 108.61 3.011 C 108.328 2.87 107.999 2.741 107.621 2.625 C 107.244 2.51 106.798 2.451 106.284 2.451 C 105.82 2.451 105.413 2.502 105.065 2.603 C 104.717 2.704 104.424 2.842 104.189 3.022 C 103.952 3.201 103.776 3.416 103.66 3.666 C 103.544 3.916 103.486 4.19 103.486 4.489 C 103.486 4.869 103.604 5.186 103.841 5.44 C 104.076 5.695 104.39 5.91 104.78 6.089 C 105.169 6.269 105.613 6.429 106.111 6.571 C 106.608 6.712 107.117 6.864 107.64 7.024 C 108.163 7.185 108.672 7.371 109.169 7.584 C 109.667 7.797 110.111 8.065 110.5 8.39 C 110.89 8.714 111.202 9.111 111.439 9.582 C 111.676 10.052 111.794 10.623 111.794 11.295 C 111.794 12.025 111.654 12.71 111.377 13.348 C 111.1 13.986 110.693 14.542 110.157 15.016 C 109.624 15.49 108.971 15.863 108.2 16.135 C 107.428 16.408 106.546 16.544 105.551 16.544 C 104.978 16.544 104.415 16.493 103.859 16.392 C 103.304 16.292 102.771 16.149 102.261 15.962 C 101.751 15.775 101.272 15.552 100.825 15.29 C 100.377 15.029 99.978 14.737 99.63 14.417 L 100.613 12.974 C 100.697 12.868 100.805 12.782 100.936 12.71 C 101.069 12.639 101.21 12.603 101.359 12.603 C 101.566 12.603 101.79 12.681 102.032 12.834 C 102.271 12.987 102.558 13.156 102.889 13.343 C 103.22 13.53 103.608 13.699 104.052 13.851 C 104.495 14.004 105.028 14.081 105.65 14.081 C 106.603 14.081 107.341 13.878 107.864 13.471 C 108.386 13.064 108.647 12.481 108.647 11.719 C 108.647 11.295 108.53 10.948 108.293 10.679 C 108.056 10.41 107.743 10.184 107.354 10.002 C 106.964 9.819 106.521 9.663 106.023 9.537 C 105.526 9.41 105.02 9.272 104.506 9.123 C 103.991 8.973 103.486 8.794 102.988 8.585 C 102.491 8.377 102.047 8.104 101.657 7.768 C 101.267 7.433 100.955 7.014 100.719 6.509 C 100.483 6.007 100.365 5.385 100.365 4.646 C 100.365 4.056 100.495 3.481 100.757 2.921 C 101.018 2.362 101.397 1.865 101.894 1.434 C 102.392 1.001 103.006 0.653 103.736 0.393 C 104.465 0.13 105.302 0 106.247 0 C 107.308 0 108.287 0.149 109.181 0.448 C 110.078 0.747 110.84 1.165 111.47 1.702 Z" fill="rgb(224,37,0)"></path></svg>