<svg xmlns="http://www.w3.org/2000/svg" xmlns:xlink="http://www.w3.org/1999/xlink" viewBox="0 0 64 23"><path d="M 31.337 22.826 L 35.428 22.826 L 35.428 6.557 L 31.337 6.557 Z" fill="#ffffff"></path><path d="M 46.55 10.161 C 48.002 10.218 48.753 10.784 49.649 11.796 L 52.103 8.651 C 51.435 7.875 49.535 6.537 46.358 6.537 C 41.606 6.537 38.139 9.906 38.139 14.651 C 38.139 19.43 41.606 22.797 46.358 22.797 C 49.392 22.797 50.799 21.578 52.009 20.532 C 52.066 20.483 52.122 20.433 52.179 20.385 L 49.924 16.858 C 49.217 18.202 47.963 19.173 46.55 19.173 C 44.078 19.173 42.344 17.344 42.344 14.651 C 42.344 11.958 44.079 10.063 46.55 10.161 Z" fill="#ffffff"></path><path d="M 60.238 6.559 L 54.548 13.878 L 60.238 22.825 L 64.305 22.825 L 58.611 13.878 L 64.305 6.559 Z" fill="#ffffff"></path><path d="M 31.323 0.082 L 31.323 5.776 L 32.84 3.842 L 35.428 4.204 Z M 10.66 4.129 C 13.428 4.129 15.38 5.57 16.388 7.721 L 19.121 4.187 C 17.929 2.792 15.341 0 10.697 0 C 4.909 0 0 4.721 0 11.414 L 0 11.422 C 0.004 18.151 4.897 22.826 10.638 22.826 C 14.886 22.826 17.987 19.4 18.733 18.577 L 18.74 18.568 L 16.093 15.518 C 14.71 17.801 12.601 18.815 10.644 18.815 C 6.593 18.815 4.146 15.586 4.146 11.51 L 4.147 11.422 C 4.182 7.386 6.66 4.129 10.66 4.129 Z" fill="#E62800"></path><path d="M 21.195 0.051 L 25.261 0.051 L 25.261 17.225 C 25.261 18.265 25.683 19.383 26.428 19.383 C 26.972 19.383 27.24 19.025 27.309 18.759 L 28.393 21.346 C 28.046 22.147 26.79 22.826 25.3 22.826 C 22.748 22.826 21.195 21.36 21.195 18.443 Z" fill="#ffffff"></path><path d="M 0 11.422 C 0.004 18.151 4.897 22.826 10.638 22.826 C 14.886 22.826 17.987 19.4 18.733 18.577 L 18.74 18.568 L 16.093 15.518 C 14.71 17.801 12.601 18.815 10.644 18.815 C 6.556 18.815 4.096 15.263 4.147 11.422 Z" fill="#ffffff"></path></svg>
